<svg xmlns="http://www.w3.org/2000/svg" viewBox="0 0 760 420" width="760" height="420" font-family="system-ui, sans-serif">
<rect width="760" height="420" fill="#ffffff"/>
<text x="380.0" y="26" text-anchor="middle" font-size="15" font-weight="600" fill="#222222">Finesse au fil des itérations</text>
<line x1="78.0" y1="46" x2="78.0" y2="362" stroke="#dcdcdc" stroke-width="1"/>
<text x="78.0" y="380" text-anchor="middle" font-size="11" fill="#5a5a5a">0</text>
<line x1="209.2" y1="46" x2="209.2" y2="362" stroke="#dcdcdc" stroke-width="1"/>
<text x="209.2" y="380" text-anchor="middle" font-size="11" fill="#5a5a5a">1.00</text>
<line x1="340.4" y1="46" x2="340.4" y2="362" stroke="#dcdcdc" stroke-width="1"/>
<text x="340.4" y="380" text-anchor="middle" font-size="11" fill="#5a5a5a">2.00</text>
<line x1="471.6" y1="46" x2="471.6" y2="362" stroke="#dcdcdc" stroke-width="1"/>
<text x="471.6" y="380" text-anchor="middle" font-size="11" fill="#5a5a5a">3.00</text>
<line x1="602.8" y1="46" x2="602.8" y2="362" stroke="#dcdcdc" stroke-width="1"/>
<text x="602.8" y="380" text-anchor="middle" font-size="11" fill="#5a5a5a">4.00</text>
<line x1="734.0" y1="46" x2="734.0" y2="362" stroke="#dcdcdc" stroke-width="1"/>
<text x="734.0" y="380" text-anchor="middle" font-size="11" fill="#5a5a5a">5.00</text>
<line x1="78" y1="360.9" x2="734" y2="360.9" stroke="#dcdcdc" stroke-width="1"/>
<text x="70" y="364.9" text-anchor="end" font-size="11" fill="#5a5a5a">0</text>
<line x1="78" y1="266.5" x2="734" y2="266.5" stroke="#dcdcdc" stroke-width="1"/>
<text x="70" y="270.5" text-anchor="end" font-size="11" fill="#5a5a5a">2.00</text>
<line x1="78" y1="172.1" x2="734" y2="172.1" stroke="#dcdcdc" stroke-width="1"/>
<text x="70" y="176.1" text-anchor="end" font-size="11" fill="#5a5a5a">4.00</text>
<line x1="78" y1="77.7" x2="734" y2="77.7" stroke="#dcdcdc" stroke-width="1"/>
<text x="70" y="81.7" text-anchor="end" font-size="11" fill="#5a5a5a">6.00</text>
<rect x="78" y="46" width="656" height="316" fill="none" stroke="#5a5a5a" stroke-width="1.2"/>
<path d="M78.0,198.4 L209.2,198.4 L471.6,209.7 L602.8,67.8 L734.0,340.2" fill="none" stroke="#1f4e8c" stroke-width="2" stroke-linejoin="round"/>
<circle cx="78.0" cy="198.4" r="3" fill="#1f4e8c"/>
<circle cx="209.2" cy="198.4" r="3" fill="#1f4e8c"/>
<circle cx="471.6" cy="209.7" r="3" fill="#1f4e8c"/>
<circle cx="602.8" cy="67.8" r="3" fill="#1f4e8c"/>
<circle cx="734.0" cy="340.2" r="3" fill="#1f4e8c"/>
<circle cx="602.8" cy="67.8" r="5.5" fill="none" stroke="#1f4e8c" stroke-width="2.5"/>
<line x1="88" y1="56" x2="110" y2="56" stroke="#1f4e8c" stroke-width="2.5"/>
<text x="116" y="60" font-size="12" fill="#222222">Cl/Cd</text>
<text x="406.0" y="406" text-anchor="middle" font-size="12" fill="#222222">itération</text>
<text x="18" y="204.0" text-anchor="middle" font-size="12" fill="#222222" transform="rotate(-90 18 204.0)">Cl / Cd</text>
</svg>