0
SECTION
2
ENTITIES
0
LWPOLYLINE
8
PROFIL
90
6
70
0
10
190.011500
20
-4.306500
10
194.150750
20
-4.025500
10
198.184500
20
-3.749750
10
202.106750
20
-3.479750
10
205.911500
20
-3.216250
10
209.592500
20
-2.959750
0
LWPOLYLINE
8
PROFIL
90
22
70
0
10
48.356000
20
-10.549750
10
52.225500
20
-10.585750
10
56.202750
20
-10.593000
10
60.282750
20
-10.572500
10
64.459000
20
-10.526500
10
68.726000
20
-10.456750
10
73.077250
20
-10.365250
10
77.507000
20
-10.254000
10
82.008500
20
-10.125000
10
86.575750
20
-9.980750
10
91.202000
20
-9.823000
10
95.880500
20
-9.654250
10
100.609750
20
-9.476250
10
105.411250
20
-9.283500
10
110.243500
20
-9.073250
10
115.099500
20
-8.847000
10
119.971750
20
-8.606500
10
124.853250
20
-8.353500
10
129.736250
20
-8.089750
10
134.613250
20
-7.816750
10
139.477250
20
-7.536000
10
144.320500
20
-7.249250
0
LWPOLYLINE
8
PROFIL
90
10
70
0
10
22.999000
20
13.581250
10
20.201750
20
12.836250
10
17.572250
20
12.064250
10
15.114000
20
11.268500
10
12.831000
20
10.452000
10
10.726500
20
9.618000
10
8.803500
20
8.769000
10
7.065000
20
7.908250
10
5.512750
20
7.038000
10
4.149500
20
6.161250
0
LWPOLYLINE
8
PROFIL
90
10
70
0
10
249.611000
20
-0.030250
10
249.902750
20
-0.007500
10
250.000000
20
-0.000000
10
249.904500
20
0.020500
10
249.618500
20
0.081500
10
249.141750
20
0.183000
10
248.475750
20
0.324500
10
247.620750
20
0.505000
10
246.578500
20
0.724000
10
245.350250
20
0.980500
0
LWPOLYLINE
8
PROFIL
90
6
70
0
10
167.969250
20
-5.768750
10
172.534750
20
-5.471000
10
177.028500
20
-5.175250
10
181.443750
20
-4.882250
10
185.773750
20
-4.592250
10
190.011500
20
-4.306500
0
LWPOLYLINE
8
PROFIL
90
6
70
0
10
245.263500
20
-0.364500
10
246.514000
20
-0.269000
10
247.575500
20
-0.187250
10
248.446250
20
-0.120250
10
249.125250
20
-0.067750
10
249.611000
20
-0.030250
0
LWPOLYLINE
8
PROFIL
90
3
70
0
10
0.215000
20
1.749250
10
0.010250
20
0.872500
10
0.000000
20
0.000000
0
LWPOLYLINE
8
PROFIL
90
22
70
0
10
135.001500
20
17.278250
10
130.078750
20
17.692250
10
125.146750
20
18.075750
10
120.213250
20
18.427000
10
115.285750
20
18.744250
10
110.372250
20
19.026000
10
105.480250
20
19.270500
10
100.617750
20
19.476000
10
95.758000
20
19.636750
10
90.938000
20
19.743250
10
86.170000
20
19.795000
10
81.462250
20
19.791500
10
76.822250
20
19.732500
10
72.257750
20
19.618250
10
67.776500
20
19.448750
10
63.385750
20
19.225000
10
59.092750
20
18.947500
10
54.904500
20
18.617500
10
50.828250
20
18.236250
10
46.870500
20
17.805500
10
43.037750
20
17.327000
10
39.336250
20
16.802750
0
LWPOLYLINE
8
PROFIL
90
15
70
0
10
209.592500
20
-2.959750
10
213.143750
20
-2.710500
10
216.560000
20
-2.469250
10
219.835500
20
-2.236500
10
222.965250
20
-2.012500
10
225.944250
20
-1.797750
10
228.767500
20
-1.593000
10
231.430750
20
-1.398500
10
233.929750
20
-1.214750
10
236.260000
20
-1.042250
10
238.418250
20
-0.881500
10
240.400750
20
-0.732750
10
242.204500
20
-0.597000
10
243.826250
20
-0.474000
10
245.263500
20
-0.364500
0
LWPOLYLINE
8
PROFIL
90
22
70
0
10
223.364000
20
5.270500
10
220.266000
20
5.831000
10
217.020750
20
6.407000
10
213.633000
20
6.996250
10
210.107750
20
7.596500
10
206.450500
20
8.205500
10
202.666500
20
8.820750
10
198.761750
20
9.440000
10
194.742000
20
10.061000
10
190.613000
20
10.681500
10
186.381750
20
11.299250
10
182.054000
20
11.912000
10
177.636500
20
12.517500
10
173.136250
20
13.113250
10
168.560000
20
13.697500
10
163.914750
20
14.267750
10
159.207500
20
14.822000
10
154.445750
20
15.358000
10
149.636750
20
15.873750
10
144.788250
20
16.367000
10
139.907250
20
16.836000
10
135.001500
20
17.278250
0
LWPOLYLINE
8
PROFIL
90
15
70
0
10
0.000000
20
0.000000
10
0.182500
20
-0.853250
10
0.555750
20
-1.672250
10
1.118500
20
-2.457000
10
1.869750
20
-3.207000
10
2.807750
20
-3.921750
10
3.930750
20
-4.601000
10
5.236500
20
-5.244500
10
6.723000
20
-5.852000
10
8.387250
20
-6.422750
10
10.226500
20
-6.956500
10
12.237750
20
-7.453250
10
14.417250
20
-7.912750
10
16.762000
20
-8.335000
10
19.267750
20
-8.719500
0
LWPOLYLINE
8
PROFIL
90
6
70
0
10
245.350250
20
0.980500
10
243.938000
20
1.273000
10
242.343500
20
1.600500
10
240.569000
20
1.961250
10
238.617500
20
2.353750
10
236.491500
20
2.776250
0
LWPOLYLINE
8
PROFIL
90
6
70
0
10
39.336250
20
16.802750
10
35.772250
20
16.235000
10
32.351000
20
15.626500
10
29.078250
20
14.979250
10
25.959250
20
14.296750
10
22.999000
20
13.581250
0
LWPOLYLINE
8
PROFIL
90
6
70
0
10
236.491500
20
2.776250
10
234.194250
20
3.226750
10
231.729250
20
3.703500
10
229.099750
20
4.204500
10
226.310000
20
4.727500
10
223.364000
20
5.270500
0
LWPOLYLINE
8
PROFIL
90
6
70
0
10
4.149500
20
6.161250
10
2.976750
20
5.280000
10
1.996000
20
4.396250
10
1.208250
20
3.512250
10
0.614250
20
2.629500
10
0.215000
20
1.749250
0
LWPOLYLINE
8
PROFIL
90
6
70
0
10
144.320500
20
-7.249250
10
149.135750
20
-6.957750
10
153.915500
20
-6.662750
10
158.652500
20
-6.365500
10
163.339500
20
-6.067250
10
167.969250
20
-5.768750
0
LWPOLYLINE
8
PROFIL
90
10
70
0
10
19.267750
20
-8.719500
10
21.930750
20
-9.066750
10
24.746750
20
-9.376750
10
27.711500
20
-9.649750
10
30.820250
20
-9.886500
10
34.068500
20
-10.087250
10
37.451250
20
-10.253000
10
40.963500
20
-10.384750
10
44.600250
20
-10.483250
10
48.356000
20
-10.549750
0
LINE
8
PROFIL
10
0.000000
20
0.000000
11
0.000000
21
0.000000
0
LWPOLYLINE
8
CARTOUCHE
90
5
70
0
10
0.000000
20
-60.000000
10
40.000000
20
-60.000000
10
40.000000
20
-48.000000
10
0.000000
20
-48.000000
10
0.000000
20
-60.000000
0
ENDSEC
0
EOF
