<svg xmlns="http://www.w3.org/2000/svg" viewBox="0 0 760 420" width="760" height="420" font-family="system-ui, sans-serif">
<rect width="760" height="420" fill="#ffffff"/>
<text x="380.0" y="26" text-anchor="middle" font-size="15" font-weight="600" fill="#222222">Convergence du calcul (seconde moitié)</text>
<line x1="208.7" y1="46" x2="208.7" y2="362" stroke="#dcdcdc" stroke-width="1"/>
<text x="208.7" y="380" text-anchor="middle" font-size="11" fill="#5a5a5a">1.2e+03</text>
<line x1="340.0" y1="46" x2="340.0" y2="362" stroke="#dcdcdc" stroke-width="1"/>
<text x="340.0" y="380" text-anchor="middle" font-size="11" fill="#5a5a5a">1.4e+03</text>
<line x1="471.3" y1="46" x2="471.3" y2="362" stroke="#dcdcdc" stroke-width="1"/>
<text x="471.3" y="380" text-anchor="middle" font-size="11" fill="#5a5a5a">1.6e+03</text>
<line x1="602.7" y1="46" x2="602.7" y2="362" stroke="#dcdcdc" stroke-width="1"/>
<text x="602.7" y="380" text-anchor="middle" font-size="11" fill="#5a5a5a">1.8e+03</text>
<line x1="734.0" y1="46" x2="734.0" y2="362" stroke="#dcdcdc" stroke-width="1"/>
<text x="734.0" y="380" text-anchor="middle" font-size="11" fill="#5a5a5a">2.0e+03</text>
<line x1="78" y1="349.6" x2="734" y2="349.6" stroke="#dcdcdc" stroke-width="1"/>
<text x="70" y="353.6" text-anchor="end" font-size="11" fill="#5a5a5a">0</text>
<line x1="78" y1="276.0" x2="734" y2="276.0" stroke="#dcdcdc" stroke-width="1"/>
<text x="70" y="280.0" text-anchor="end" font-size="11" fill="#5a5a5a">0.200</text>
<line x1="78" y1="202.4" x2="734" y2="202.4" stroke="#dcdcdc" stroke-width="1"/>
<text x="70" y="206.4" text-anchor="end" font-size="11" fill="#5a5a5a">0.400</text>
<line x1="78" y1="128.8" x2="734" y2="128.8" stroke="#dcdcdc" stroke-width="1"/>
<text x="70" y="132.8" text-anchor="end" font-size="11" fill="#5a5a5a">0.600</text>
<line x1="78" y1="55.2" x2="734" y2="55.2" stroke="#dcdcdc" stroke-width="1"/>
<text x="70" y="59.2" text-anchor="end" font-size="11" fill="#5a5a5a">0.800</text>
<line x1="78" y1="349.6" x2="734" y2="349.6" stroke="#5a5a5a" stroke-width="1.2" stroke-dasharray="4 3"/>
<rect x="78" y="46" width="656" height="316" fill="none" stroke="#5a5a5a" stroke-width="1.2"/>
<path d="M78.0,340.2 L78.7,340.2 L79.3,340.2 L80.0,340.2 L80.6,340.2 L81.3,340.2 L81.9,340.2 L82.6,340.2 L83.3,340.2 L83.9,340.2 L84.6,340.2 L85.2,340.2 L85.9,340.2 L86.5,340.2 L87.2,340.2 L87.8,340.2 L88.5,340.2 L89.2,340.2 L89.8,340.2 L90.5,340.2 L91.1,340.2 L91.8,340.2 L92.4,340.2 L93.1,340.2 L93.8,340.2 L94.4,340.2 L95.1,340.2 L95.7,340.2 L96.4,340.2 L97.0,340.2 L97.7,340.2 L98.4,340.2 L99.0,340.2 L99.7,340.2 L100.3,340.2 L101.0,340.2 L101.6,340.2 L102.3,340.2 L103.0,340.2 L103.6,340.2 L104.3,340.2 L104.9,340.2 L105.6,340.2 L106.2,340.2 L106.9,340.2 L107.5,340.2 L108.2,340.2 L108.9,340.2 L109.5,340.2 L110.2,340.2 L110.8,340.2 L111.5,340.2 L112.1,340.2 L112.8,340.2 L113.5,340.2 L114.1,340.2 L114.8,340.2 L115.4,340.2 L116.1,340.2 L116.7,340.2 L117.4,340.2 L118.1,340.2 L118.7,340.2 L119.4,340.2 L120.0,340.2 L120.7,340.2 L121.3,340.2 L122.0,340.2 L122.7,340.2 L123.3,340.2 L124.0,340.2 L124.6,340.2 L125.3,340.2 L125.9,340.2 L126.6,340.2 L127.2,340.2 L127.9,340.2 L128.6,340.2 L129.2,340.2 L129.9,340.2 L130.5,340.2 L131.2,340.2 L131.8,340.2 L132.5,340.2 L133.2,340.2 L133.8,340.2 L134.5,340.2 L135.1,340.2 L135.8,340.2 L136.4,340.2 L137.1,340.2 L137.8,340.2 L138.4,340.2 L139.1,340.2 L139.7,340.2 L140.4,340.2 L141.0,340.2 L141.7,340.2 L142.4,340.2 L143.0,340.2 L143.7,340.2 L144.3,340.2 L145.0,340.2 L145.6,340.2 L146.3,340.2 L146.9,340.2 L147.6,340.2 L148.3,340.2 L148.9,340.2 L149.6,340.2 L150.2,340.2 L150.9,340.2 L151.5,340.2 L152.2,340.2 L152.9,340.2 L153.5,340.2 L154.2,340.2 L154.8,340.2 L155.5,340.2 L156.1,340.2 L156.8,340.2 L157.5,340.2 L158.1,340.2 L158.8,340.2 L159.4,340.2 L160.1,340.2 L160.7,340.2 L161.4,340.2 L162.1,340.2 L162.7,340.2 L163.4,340.2 L164.0,340.2 L164.7,340.2 L165.3,340.2 L166.0,340.2 L166.6,340.2 L167.3,340.2 L168.0,340.2 L168.6,340.2 L169.3,340.2 L169.9,340.2 L170.6,340.2 L171.2,340.2 L171.9,340.2 L172.6,340.2 L173.2,340.2 L173.9,340.2 L174.5,340.2 L175.2,340.2 L175.8,340.2 L176.5,340.2 L177.2,340.2 L177.8,340.2 L178.5,340.2 L179.1,340.2 L179.8,340.2 L180.4,340.2 L181.1,340.2 L181.8,340.2 L182.4,340.2 L183.1,340.2 L183.7,340.2 L184.4,340.2 L185.0,340.2 L185.7,340.2 L186.3,340.2 L187.0,340.2 L187.7,340.2 L188.3,340.2 L189.0,340.2 L189.6,340.2 L190.3,340.2 L190.9,340.2 L191.6,340.2 L192.3,340.2 L192.9,340.2 L193.6,340.2 L194.2,340.2 L194.9,340.2 L195.5,340.2 L196.2,340.2 L196.9,340.2 L197.5,340.2 L198.2,340.2 L198.8,340.2 L199.5,340.2 L200.1,340.2 L200.8,340.2 L201.5,340.2 L202.1,340.2 L202.8,340.2 L203.4,340.2 L204.1,340.2 L204.7,340.2 L205.4,340.2 L206.0,340.2 L206.7,340.2 L207.4,340.2 L208.0,340.2 L208.7,340.2 L209.3,340.2 L210.0,340.2 L210.6,340.2 L211.3,340.2 L212.0,340.2 L212.6,340.2 L213.3,340.2 L213.9,340.2 L214.6,340.2 L215.2,340.2 L215.9,340.2 L216.6,340.2 L217.2,340.2 L217.9,340.2 L218.5,340.2 L219.2,340.2 L219.8,340.2 L220.5,340.2 L221.2,340.2 L221.8,340.2 L222.5,340.2 L223.1,340.2 L223.8,340.2 L224.4,340.2 L225.1,340.2 L225.7,340.2 L226.4,340.2 L227.1,340.2 L227.7,340.2 L228.4,340.2 L229.0,340.2 L229.7,340.2 L230.3,340.2 L231.0,340.2 L231.7,340.2 L232.3,340.2 L233.0,340.2 L233.6,340.2 L234.3,340.2 L234.9,340.2 L235.6,340.2 L236.3,340.2 L236.9,340.2 L237.6,340.2 L238.2,340.2 L238.9,340.2 L239.5,340.2 L240.2,340.2 L240.9,340.2 L241.5,340.2 L242.2,340.2 L242.8,340.2 L243.5,340.2 L244.1,340.2 L244.8,340.2 L245.4,340.2 L246.1,340.2 L246.8,340.2 L247.4,340.2 L248.1,340.2 L248.7,340.2 L249.4,340.2 L250.0,340.2 L250.7,340.2 L251.4,340.2 L252.0,340.2 L252.7,340.2 L253.3,340.2 L254.0,340.2 L254.6,340.2 L255.3,340.2 L256.0,340.2 L256.6,340.2 L257.3,340.2 L257.9,340.2 L258.6,340.2 L259.2,340.2 L259.9,340.2 L260.6,340.2 L261.2,340.2 L261.9,340.2 L262.5,340.2 L263.2,340.2 L263.8,340.2 L264.5,340.2 L265.1,340.2 L265.8,340.2 L266.5,340.2 L267.1,340.2 L267.8,340.2 L268.4,340.2 L269.1,340.2 L269.7,340.2 L270.4,340.2 L271.1,340.2 L271.7,340.2 L272.4,340.2 L273.0,340.2 L273.7,340.2 L274.3,340.2 L275.0,340.2 L275.7,340.2 L276.3,340.2 L277.0,340.2 L277.6,340.2 L278.3,340.2 L278.9,340.2 L279.6,340.2 L280.3,340.2 L280.9,340.2 L281.6,340.2 L282.2,340.2 L282.9,340.2 L283.5,340.2 L284.2,340.2 L284.8,340.2 L285.5,340.2 L286.2,340.2 L286.8,340.2 L287.5,340.2 L288.1,340.2 L288.8,340.2 L289.4,340.2 L290.1,340.2 L290.8,340.2 L291.4,340.2 L292.1,340.2 L292.7,340.2 L293.4,340.2 L294.0,340.2 L294.7,340.2 L295.4,340.2 L296.0,340.2 L296.7,340.2 L297.3,340.2 L298.0,340.2 L298.6,340.2 L299.3,340.2 L299.9,340.2 L300.6,340.2 L301.3,340.2 L301.9,340.2 L302.6,340.2 L303.2,340.2 L303.9,340.2 L304.5,340.2 L305.2,340.2 L305.9,340.2 L306.5,340.2 L307.2,340.2 L307.8,340.2 L308.5,340.2 L309.1,340.2 L309.8,340.2 L310.5,340.2 L311.1,340.2 L311.8,340.2 L312.4,340.2 L313.1,340.2 L313.7,340.2 L314.4,340.2 L315.1,340.2 L315.7,340.2 L316.4,340.2 L317.0,340.2 L317.7,340.2 L318.3,340.2 L319.0,340.2 L319.6,340.2 L320.3,340.2 L321.0,340.2 L321.6,340.2 L322.3,340.2 L322.9,340.2 L323.6,340.2 L324.2,340.2 L324.9,340.2 L325.6,340.2 L326.2,340.2 L326.9,340.2 L327.5,340.2 L328.2,340.2 L328.8,340.2 L329.5,340.2 L330.2,340.2 L330.8,340.2 L331.5,340.2 L332.1,340.2 L332.8,340.2 L333.4,340.2 L334.1,340.2 L334.8,340.2 L335.4,340.2 L336.1,340.2 L336.7,340.2 L337.4,340.2 L338.0,340.2 L338.7,340.2 L339.3,340.2 L340.0,340.2 L340.7,340.2 L341.3,340.2 L342.0,340.2 L342.6,340.2 L343.3,340.2 L343.9,340.2 L344.6,340.2 L345.3,340.2 L345.9,340.2 L346.6,340.2 L347.2,340.2 L347.9,340.2 L348.5,340.2 L349.2,340.2 L349.9,340.2 L350.5,340.2 L351.2,340.2 L351.8,340.2 L352.5,340.2 L353.1,340.2 L353.8,340.2 L354.5,340.2 L355.1,340.2 L355.8,340.2 L356.4,340.2 L357.1,340.2 L357.7,340.2 L358.4,340.2 L359.0,340.2 L359.7,340.2 L360.4,340.2 L361.0,340.2 L361.7,340.2 L362.3,340.2 L363.0,340.2 L363.6,340.2 L364.3,340.2 L365.0,340.2 L365.6,340.2 L366.3,340.2 L366.9,340.2 L367.6,340.2 L368.2,340.2 L368.9,340.2 L369.6,340.2 L370.2,340.2 L370.9,340.2 L371.5,340.2 L372.2,340.2 L372.8,340.2 L373.5,340.2 L374.2,340.2 L374.8,340.2 L375.5,340.2 L376.1,340.2 L376.8,340.2 L377.4,340.2 L378.1,340.2 L378.7,340.2 L379.4,340.2 L380.1,340.2 L380.7,340.2 L381.4,340.2 L382.0,340.2 L382.7,340.2 L383.3,340.2 L384.0,340.2 L384.7,340.2 L385.3,340.2 L386.0,340.2 L386.6,340.2 L387.3,340.2 L387.9,340.2 L388.6,340.2 L389.3,340.2 L389.9,340.2 L390.6,340.2 L391.2,340.2 L391.9,340.2 L392.5,340.2 L393.2,340.2 L393.9,340.2 L394.5,340.2 L395.2,340.2 L395.8,340.2 L396.5,340.2 L397.1,340.2 L397.8,340.2 L398.4,340.2 L399.1,340.2 L399.8,340.2 L400.4,340.2 L401.1,340.2 L401.7,340.2 L402.4,340.2 L403.0,340.2 L403.7,340.2 L404.4,340.2 L405.0,340.2 L405.7,340.2 L406.3,340.2 L407.0,340.2 L407.6,340.2 L408.3,340.2 L409.0,340.2 L409.6,340.2 L410.3,340.2 L410.9,340.2 L411.6,340.2 L412.2,340.2 L412.9,340.2 L413.6,340.2 L414.2,340.2 L414.9,340.2 L415.5,340.2 L416.2,340.2 L416.8,340.2 L417.5,340.2 L418.1,340.2 L418.8,340.2 L419.5,340.2 L420.1,340.2 L420.8,340.2 L421.4,340.2 L422.1,340.2 L422.7,340.2 L423.4,340.2 L424.1,340.2 L424.7,340.2 L425.4,340.2 L426.0,340.2 L426.7,340.2 L427.3,340.2 L428.0,340.2 L428.7,340.2 L429.3,340.2 L430.0,340.2 L430.6,340.2 L431.3,340.2 L431.9,340.2 L432.6,340.2 L433.3,340.2 L433.9,340.2 L434.6,340.2 L435.2,340.2 L435.9,340.2 L436.5,340.2 L437.2,340.2 L437.8,340.2 L438.5,340.2 L439.2,340.2 L439.8,340.2 L440.5,340.2 L441.1,340.2 L441.8,340.2 L442.4,340.2 L443.1,340.2 L443.8,340.2 L444.4,340.2 L445.1,340.2 L445.7,340.2 L446.4,340.2 L447.0,340.2 L447.7,340.2 L448.4,340.2 L449.0,340.2 L449.7,340.2 L450.3,340.2 L451.0,340.2 L451.6,340.2 L452.3,340.2 L453.0,340.2 L453.6,340.2 L454.3,340.2 L454.9,340.2 L455.6,340.2 L456.2,340.2 L456.9,340.2 L457.5,340.2 L458.2,340.2 L458.9,340.2 L459.5,340.2 L460.2,340.2 L460.8,340.2 L461.5,340.2 L462.1,340.2 L462.8,340.2 L463.5,340.2 L464.1,340.2 L464.8,340.2 L465.4,340.2 L466.1,340.2 L466.7,340.2 L467.4,340.2 L468.1,340.2 L468.7,340.2 L469.4,340.2 L470.0,340.2 L470.7,340.2 L471.3,340.2 L472.0,340.2 L472.7,340.2 L473.3,340.2 L474.0,340.2 L474.6,340.2 L475.3,340.2 L475.9,340.2 L476.6,340.2 L477.2,340.2 L477.9,340.2 L478.6,340.2 L479.2,340.2 L479.9,340.2 L480.5,340.2 L481.2,340.2 L481.8,340.2 L482.5,340.2 L483.2,340.2 L483.8,340.2 L484.5,340.2 L485.1,340.2 L485.8,340.2 L486.4,340.2 L487.1,340.2 L487.8,340.2 L488.4,340.2 L489.1,340.2 L489.7,340.2 L490.4,340.2 L491.0,340.2 L491.7,340.2 L492.4,340.2 L493.0,340.2 L493.7,340.2 L494.3,340.2 L495.0,340.2 L495.6,340.2 L496.3,340.2 L496.9,340.2 L497.6,340.2 L498.3,340.2 L498.9,340.2 L499.6,340.2 L500.2,340.2 L500.9,340.2 L501.5,340.2 L502.2,340.2 L502.9,340.2 L503.5,340.2 L504.2,340.2 L504.8,340.2 L505.5,340.2 L506.1,340.2 L506.8,340.2 L507.5,340.2 L508.1,340.2 L508.8,340.2 L509.4,340.2 L510.1,340.2 L510.7,340.2 L511.4,340.2 L512.1,340.2 L512.7,340.2 L513.4,340.2 L514.0,340.2 L514.7,340.2 L515.3,340.2 L516.0,340.2 L516.6,340.2 L517.3,340.2 L518.0,340.2 L518.6,340.2 L519.3,340.2 L519.9,340.2 L520.6,340.2 L521.2,340.2 L521.9,340.2 L522.6,340.2 L523.2,340.2 L523.9,340.2 L524.5,340.2 L525.2,340.2 L525.8,340.2 L526.5,340.2 L527.2,340.2 L527.8,340.2 L528.5,340.2 L529.1,340.2 L529.8,340.2 L530.4,340.2 L531.1,340.2 L531.7,340.2 L532.4,340.2 L533.1,340.2 L533.7,340.2 L534.4,340.2 L535.0,340.2 L535.7,340.2 L536.3,340.2 L537.0,340.2 L537.7,340.2 L538.3,340.2 L539.0,340.2 L539.6,340.2 L540.3,340.2 L540.9,340.2 L541.6,340.2 L542.3,340.2 L542.9,340.2 L543.6,340.2 L544.2,340.2 L544.9,340.2 L545.5,340.2 L546.2,340.2 L546.9,340.2 L547.5,340.2 L548.2,340.2 L548.8,340.2 L549.5,340.2 L550.1,340.2 L550.8,340.2 L551.4,340.2 L552.1,340.2 L552.8,340.2 L553.4,340.2 L554.1,340.2 L554.7,340.2 L555.4,340.2 L556.0,340.2 L556.7,340.2 L557.4,340.2 L558.0,340.2 L558.7,340.2 L559.3,340.2 L560.0,340.2 L560.6,340.2 L561.3,340.2 L562.0,340.2 L562.6,340.2 L563.3,340.2 L563.9,340.2 L564.6,340.2 L565.2,340.2 L565.9,340.2 L566.6,340.2 L567.2,340.2 L567.9,340.2 L568.5,340.2 L569.2,340.2 L569.8,340.2 L570.5,340.2 L571.1,340.2 L571.8,340.2 L572.5,340.2 L573.1,340.2 L573.8,340.2 L574.4,340.2 L575.1,340.2 L575.7,340.2 L576.4,340.2 L577.1,340.2 L577.7,340.2 L578.4,340.2 L579.0,340.2 L579.7,340.2 L580.3,340.2 L581.0,340.2 L581.7,340.2 L582.3,340.2 L583.0,340.2 L583.6,340.2 L584.3,340.2 L584.9,340.2 L585.6,340.2 L586.3,340.2 L586.9,340.2 L587.6,340.2 L588.2,340.2 L588.9,340.2 L589.5,340.2 L590.2,340.2 L590.8,340.2 L591.5,340.2 L592.2,340.2 L592.8,340.2 L593.5,340.2 L594.1,340.2 L594.8,340.2 L595.4,340.2 L596.1,340.2 L596.8,340.2 L597.4,340.2 L598.1,340.2 L598.7,340.2 L599.4,340.2 L600.0,340.2 L600.7,340.2 L601.4,340.2 L602.0,340.2 L602.7,340.2 L603.3,340.2 L604.0,340.2 L604.6,340.2 L605.3,340.2 L606.0,340.2 L606.6,340.2 L607.3,340.2 L607.9,340.2 L608.6,340.2 L609.2,340.2 L609.9,340.2 L610.5,340.2 L611.2,340.2 L611.9,340.2 L612.5,340.2 L613.2,340.2 L613.8,340.2 L614.5,340.2 L615.1,340.2 L615.8,340.2 L616.5,340.2 L617.1,340.2 L617.8,340.2 L618.4,340.2 L619.1,340.2 L619.7,340.2 L620.4,340.2 L621.1,340.2 L621.7,340.2 L622.4,340.2 L623.0,340.2 L623.7,340.2 L624.3,340.2 L625.0,340.2 L625.7,340.2 L626.3,340.2 L627.0,340.2 L627.6,340.2 L628.3,340.2 L628.9,340.2 L629.6,340.2 L630.2,340.2 L630.9,340.2 L631.6,340.2 L632.2,340.2 L632.9,340.2 L633.5,340.2 L634.2,340.2 L634.8,340.2 L635.5,340.2 L636.2,340.2 L636.8,340.2 L637.5,340.2 L638.1,340.2 L638.8,340.2 L639.4,340.2 L640.1,340.2 L640.8,340.2 L641.4,340.2 L642.1,340.2 L642.7,340.2 L643.4,340.2 L644.0,340.2 L644.7,340.2 L645.4,340.2 L646.0,340.2 L646.7,340.2 L647.3,340.2 L648.0,340.2 L648.6,340.2 L649.3,340.2 L649.9,340.2 L650.6,340.2 L651.3,340.2 L651.9,340.2 L652.6,340.2 L653.2,340.2 L653.9,340.2 L654.5,340.2 L655.2,340.2 L655.9,340.2 L656.5,340.2 L657.2,340.2 L657.8,340.2 L658.5,340.2 L659.1,340.2 L659.8,340.2 L660.5,340.2 L661.1,340.2 L661.8,340.2 L662.4,340.2 L663.1,340.2 L663.7,340.2 L664.4,340.2 L665.1,340.2 L665.7,340.2 L666.4,340.2 L667.0,340.2 L667.7,340.2 L668.3,340.2 L669.0,340.2 L669.6,340.2 L670.3,340.2 L671.0,340.2 L671.6,340.2 L672.3,340.2 L672.9,340.2 L673.6,340.2 L674.2,340.2 L674.9,340.2 L675.6,340.2 L676.2,340.2 L676.9,340.2 L677.5,340.2 L678.2,340.2 L678.8,340.2 L679.5,340.2 L680.2,340.2 L680.8,340.2 L681.5,340.2 L682.1,340.2 L682.8,340.2 L683.4,340.2 L684.1,340.2 L684.8,340.2 L685.4,340.2 L686.1,340.2 L686.7,340.2 L687.4,340.2 L688.0,340.2 L688.7,340.2 L689.3,340.2 L690.0,340.2 L690.7,340.2 L691.3,340.2 L692.0,340.2 L692.6,340.2 L693.3,340.2 L693.9,340.2 L694.6,340.2 L695.3,340.2 L695.9,340.2 L696.6,340.2 L697.2,340.2 L697.9,340.2 L698.5,340.2 L699.2,340.2 L699.9,340.2 L700.5,340.2 L701.2,340.2 L701.8,340.2 L702.5,340.2 L703.1,340.2 L703.8,340.2 L704.5,340.2 L705.1,340.2 L705.8,340.2 L706.4,340.2 L707.1,340.2 L707.7,340.2 L708.4,340.2 L709.0,340.2 L709.7,340.2 L710.4,340.2 L711.0,340.2 L711.7,340.2 L712.3,340.2 L713.0,340.2 L713.6,340.2 L714.3,340.2 L715.0,340.2 L715.6,340.2 L716.3,340.2 L716.9,340.2 L717.6,340.2 L718.2,340.2 L718.9,340.2 L719.6,340.2 L720.2,340.2 L720.9,340.2 L721.5,340.2 L722.2,340.2 L722.8,340.2 L723.5,340.2 L724.2,340.2 L724.8,340.2 L725.5,340.2 L726.1,340.2 L726.8,340.2 L727.4,340.2 L728.1,340.2 L728.7,340.2 L729.4,340.2 L730.1,340.2 L730.7,340.2 L731.4,340.2 L732.0,340.2 L732.7,340.2 L733.3,340.2 L734.0,340.2" fill="none" stroke="#1f4e8c" stroke-width="2" stroke-linejoin="round"/>
<path d="M78.0,67.8 L78.7,67.8 L79.3,67.8 L80.0,67.8 L80.6,67.8 L81.3,67.8 L81.9,67.8 L82.6,67.8 L83.3,67.8 L83.9,67.8 L84.6,67.8 L85.2,67.8 L85.9,67.8 L86.5,67.8 L87.2,67.8 L87.8,67.8 L88.5,67.8 L89.2,67.8 L89.8,67.8 L90.5,67.8 L91.1,67.8 L91.8,67.8 L92.4,67.8 L93.1,67.8 L93.8,67.8 L94.4,67.8 L95.1,67.8 L95.7,67.8 L96.4,67.8 L97.0,67.8 L97.7,67.8 L98.4,67.8 L99.0,67.8 L99.7,67.8 L100.3,67.8 L101.0,67.8 L101.6,67.8 L102.3,67.8 L103.0,67.8 L103.6,67.8 L104.3,67.8 L104.9,67.8 L105.6,67.8 L106.2,67.8 L106.9,67.8 L107.5,67.8 L108.2,67.8 L108.9,67.8 L109.5,67.8 L110.2,67.8 L110.8,67.8 L111.5,67.8 L112.1,67.8 L112.8,67.8 L113.5,67.8 L114.1,67.8 L114.8,67.8 L115.4,67.8 L116.1,67.8 L116.7,67.8 L117.4,67.8 L118.1,67.8 L118.7,67.8 L119.4,67.8 L120.0,67.8 L120.7,67.8 L121.3,67.8 L122.0,67.8 L122.7,67.8 L123.3,67.8 L124.0,67.8 L124.6,67.8 L125.3,67.8 L125.9,67.8 L126.6,67.8 L127.2,67.8 L127.9,67.8 L128.6,67.8 L129.2,67.8 L129.9,67.8 L130.5,67.8 L131.2,67.8 L131.8,67.8 L132.5,67.8 L133.2,67.8 L133.8,67.8 L134.5,67.8 L135.1,67.8 L135.8,67.8 L136.4,67.8 L137.1,67.8 L137.8,67.8 L138.4,67.8 L139.1,67.8 L139.7,67.8 L140.4,67.8 L141.0,67.8 L141.7,67.8 L142.4,67.8 L143.0,67.8 L143.7,67.8 L144.3,67.8 L145.0,67.8 L145.6,67.8 L146.3,67.8 L146.9,67.8 L147.6,67.8 L148.3,67.8 L148.9,67.8 L149.6,67.8 L150.2,67.8 L150.9,67.8 L151.5,67.8 L152.2,67.8 L152.9,67.8 L153.5,67.8 L154.2,67.8 L154.8,67.8 L155.5,67.8 L156.1,67.8 L156.8,67.8 L157.5,67.8 L158.1,67.8 L158.8,67.8 L159.4,67.8 L160.1,67.8 L160.7,67.8 L161.4,67.8 L162.1,67.8 L162.7,67.8 L163.4,67.8 L164.0,67.8 L164.7,67.8 L165.3,67.8 L166.0,67.8 L166.6,67.8 L167.3,67.8 L168.0,67.8 L168.6,67.8 L169.3,67.8 L169.9,67.8 L170.6,67.8 L171.2,67.8 L171.9,67.8 L172.6,67.8 L173.2,67.8 L173.9,67.8 L174.5,67.8 L175.2,67.8 L175.8,67.8 L176.5,67.8 L177.2,67.8 L177.8,67.8 L178.5,67.8 L179.1,67.8 L179.8,67.8 L180.4,67.8 L181.1,67.8 L181.8,67.8 L182.4,67.8 L183.1,67.8 L183.7,67.8 L184.4,67.8 L185.0,67.8 L185.7,67.8 L186.3,67.8 L187.0,67.8 L187.7,67.8 L188.3,67.8 L189.0,67.8 L189.6,67.8 L190.3,67.8 L190.9,67.8 L191.6,67.8 L192.3,67.8 L192.9,67.8 L193.6,67.8 L194.2,67.8 L194.9,67.8 L195.5,67.8 L196.2,67.8 L196.9,67.8 L197.5,67.8 L198.2,67.8 L198.8,67.8 L199.5,67.8 L200.1,67.8 L200.8,67.8 L201.5,67.8 L202.1,67.8 L202.8,67.8 L203.4,67.8 L204.1,67.8 L204.7,67.8 L205.4,67.8 L206.0,67.8 L206.7,67.8 L207.4,67.8 L208.0,67.8 L208.7,67.8 L209.3,67.8 L210.0,67.8 L210.6,67.8 L211.3,67.8 L212.0,67.8 L212.6,67.8 L213.3,67.8 L213.9,67.8 L214.6,67.8 L215.2,67.8 L215.9,67.8 L216.6,67.8 L217.2,67.8 L217.9,67.8 L218.5,67.8 L219.2,67.8 L219.8,67.8 L220.5,67.8 L221.2,67.8 L221.8,67.8 L222.5,67.8 L223.1,67.8 L223.8,67.8 L224.4,67.8 L225.1,67.8 L225.7,67.8 L226.4,67.8 L227.1,67.8 L227.7,67.8 L228.4,67.8 L229.0,67.8 L229.7,67.8 L230.3,67.8 L231.0,67.8 L231.7,67.8 L232.3,67.8 L233.0,67.8 L233.6,67.8 L234.3,67.8 L234.9,67.8 L235.6,67.8 L236.3,67.8 L236.9,67.8 L237.6,67.8 L238.2,67.8 L238.9,67.8 L239.5,67.8 L240.2,67.8 L240.9,67.8 L241.5,67.8 L242.2,67.8 L242.8,67.8 L243.5,67.8 L244.1,67.8 L244.8,67.8 L245.4,67.8 L246.1,67.8 L246.8,67.8 L247.4,67.8 L248.1,67.8 L248.7,67.8 L249.4,67.8 L250.0,67.8 L250.7,67.8 L251.4,67.8 L252.0,67.8 L252.7,67.8 L253.3,67.8 L254.0,67.8 L254.6,67.8 L255.3,67.8 L256.0,67.8 L256.6,67.8 L257.3,67.8 L257.9,67.8 L258.6,67.8 L259.2,67.8 L259.9,67.8 L260.6,67.8 L261.2,67.8 L261.9,67.8 L262.5,67.8 L263.2,67.8 L263.8,67.8 L264.5,67.8 L265.1,67.8 L265.8,67.8 L266.5,67.8 L267.1,67.8 L267.8,67.8 L268.4,67.8 L269.1,67.8 L269.7,67.8 L270.4,67.8 L271.1,67.8 L271.7,67.8 L272.4,67.8 L273.0,67.8 L273.7,67.8 L274.3,67.8 L275.0,67.8 L275.7,67.8 L276.3,67.8 L277.0,67.8 L277.6,67.8 L278.3,67.8 L278.9,67.8 L279.6,67.8 L280.3,67.8 L280.9,67.8 L281.6,67.8 L282.2,67.8 L282.9,67.8 L283.5,67.8 L284.2,67.8 L284.8,67.8 L285.5,67.8 L286.2,67.8 L286.8,67.8 L287.5,67.8 L288.1,67.8 L288.8,67.8 L289.4,67.8 L290.1,67.8 L290.8,67.8 L291.4,67.8 L292.1,67.8 L292.7,67.8 L293.4,67.8 L294.0,67.8 L294.7,67.8 L295.4,67.8 L296.0,67.8 L296.7,67.8 L297.3,67.8 L298.0,67.8 L298.6,67.8 L299.3,67.8 L299.9,67.8 L300.6,67.8 L301.3,67.8 L301.9,67.8 L302.6,67.8 L303.2,67.8 L303.9,67.8 L304.5,67.8 L305.2,67.8 L305.9,67.8 L306.5,67.8 L307.2,67.8 L307.8,67.8 L308.5,67.8 L309.1,67.8 L309.8,67.8 L310.5,67.8 L311.1,67.8 L311.8,67.8 L312.4,67.8 L313.1,67.8 L313.7,67.8 L314.4,67.8 L315.1,67.8 L315.7,67.8 L316.4,67.8 L317.0,67.8 L317.7,67.8 L318.3,67.8 L319.0,67.8 L319.6,67.8 L320.3,67.8 L321.0,67.8 L321.6,67.8 L322.3,67.8 L322.9,67.8 L323.6,67.8 L324.2,67.8 L324.9,67.8 L325.6,67.8 L326.2,67.8 L326.9,67.8 L327.5,67.8 L328.2,67.8 L328.8,67.8 L329.5,67.8 L330.2,67.8 L330.8,67.8 L331.5,67.8 L332.1,67.8 L332.8,67.8 L333.4,67.8 L334.1,67.8 L334.8,67.8 L335.4,67.8 L336.1,67.8 L336.7,67.8 L337.4,67.8 L338.0,67.8 L338.7,67.8 L339.3,67.8 L340.0,67.8 L340.7,67.8 L341.3,67.8 L342.0,67.8 L342.6,67.8 L343.3,67.8 L343.9,67.8 L344.6,67.8 L345.3,67.8 L345.9,67.8 L346.6,67.8 L347.2,67.8 L347.9,67.8 L348.5,67.8 L349.2,67.8 L349.9,67.8 L350.5,67.8 L351.2,67.8 L351.8,67.8 L352.5,67.8 L353.1,67.8 L353.8,67.8 L354.5,67.8 L355.1,67.8 L355.8,67.8 L356.4,67.8 L357.1,67.8 L357.7,67.8 L358.4,67.8 L359.0,67.8 L359.7,67.8 L360.4,67.8 L361.0,67.8 L361.7,67.8 L362.3,67.8 L363.0,67.8 L363.6,67.8 L364.3,67.8 L365.0,67.8 L365.6,67.8 L366.3,67.8 L366.9,67.8 L367.6,67.8 L368.2,67.8 L368.9,67.8 L369.6,67.8 L370.2,67.8 L370.9,67.8 L371.5,67.8 L372.2,67.8 L372.8,67.8 L373.5,67.8 L374.2,67.8 L374.8,67.8 L375.5,67.8 L376.1,67.8 L376.8,67.8 L377.4,67.8 L378.1,67.8 L378.7,67.8 L379.4,67.8 L380.1,67.8 L380.7,67.8 L381.4,67.8 L382.0,67.8 L382.7,67.8 L383.3,67.8 L384.0,67.8 L384.7,67.8 L385.3,67.8 L386.0,67.8 L386.6,67.8 L387.3,67.8 L387.9,67.8 L388.6,67.8 L389.3,67.8 L389.9,67.8 L390.6,67.8 L391.2,67.8 L391.9,67.8 L392.5,67.8 L393.2,67.8 L393.9,67.8 L394.5,67.8 L395.2,67.8 L395.8,67.8 L396.5,67.8 L397.1,67.8 L397.8,67.8 L398.4,67.8 L399.1,67.8 L399.8,67.8 L400.4,67.8 L401.1,67.8 L401.7,67.8 L402.4,67.8 L403.0,67.8 L403.7,67.8 L404.4,67.8 L405.0,67.8 L405.7,67.8 L406.3,67.8 L407.0,67.8 L407.6,67.8 L408.3,67.8 L409.0,67.8 L409.6,67.8 L410.3,67.8 L410.9,67.8 L411.6,67.8 L412.2,67.8 L412.9,67.8 L413.6,67.8 L414.2,67.8 L414.9,67.8 L415.5,67.8 L416.2,67.8 L416.8,67.8 L417.5,67.8 L418.1,67.8 L418.8,67.8 L419.5,67.8 L420.1,67.8 L420.8,67.8 L421.4,67.8 L422.1,67.8 L422.7,67.8 L423.4,67.8 L424.1,67.8 L424.7,67.8 L425.4,67.8 L426.0,67.8 L426.7,67.8 L427.3,67.8 L428.0,67.8 L428.7,67.8 L429.3,67.8 L430.0,67.8 L430.6,67.8 L431.3,67.8 L431.9,67.8 L432.6,67.8 L433.3,67.8 L433.9,67.8 L434.6,67.8 L435.2,67.8 L435.9,67.8 L436.5,67.8 L437.2,67.8 L437.8,67.8 L438.5,67.8 L439.2,67.8 L439.8,67.8 L440.5,67.8 L441.1,67.8 L441.8,67.8 L442.4,67.8 L443.1,67.8 L443.8,67.8 L444.4,67.8 L445.1,67.8 L445.7,67.8 L446.4,67.8 L447.0,67.8 L447.7,67.8 L448.4,67.8 L449.0,67.8 L449.7,67.8 L450.3,67.8 L451.0,67.8 L451.6,67.8 L452.3,67.8 L453.0,67.8 L453.6,67.8 L454.3,67.8 L454.9,67.8 L455.6,67.8 L456.2,67.8 L456.9,67.8 L457.5,67.8 L458.2,67.8 L458.9,67.8 L459.5,67.8 L460.2,67.8 L460.8,67.8 L461.5,67.8 L462.1,67.8 L462.8,67.8 L463.5,67.8 L464.1,67.8 L464.8,67.8 L465.4,67.8 L466.1,67.8 L466.7,67.8 L467.4,67.8 L468.1,67.8 L468.7,67.8 L469.4,67.8 L470.0,67.8 L470.7,67.8 L471.3,67.8 L472.0,67.8 L472.7,67.8 L473.3,67.8 L474.0,67.8 L474.6,67.8 L475.3,67.8 L475.9,67.8 L476.6,67.8 L477.2,67.8 L477.9,67.8 L478.6,67.8 L479.2,67.8 L479.9,67.8 L480.5,67.8 L481.2,67.8 L481.8,67.8 L482.5,67.8 L483.2,67.8 L483.8,67.8 L484.5,67.8 L485.1,67.8 L485.8,67.8 L486.4,67.8 L487.1,67.8 L487.8,67.8 L488.4,67.8 L489.1,67.8 L489.7,67.8 L490.4,67.8 L491.0,67.8 L491.7,67.8 L492.4,67.8 L493.0,67.8 L493.7,67.8 L494.3,67.8 L495.0,67.8 L495.6,67.8 L496.3,67.8 L496.9,67.8 L497.6,67.8 L498.3,67.8 L498.9,67.8 L499.6,67.8 L500.2,67.8 L500.9,67.8 L501.5,67.8 L502.2,67.8 L502.9,67.8 L503.5,67.8 L504.2,67.8 L504.8,67.8 L505.5,67.8 L506.1,67.8 L506.8,67.8 L507.5,67.8 L508.1,67.8 L508.8,67.8 L509.4,67.8 L510.1,67.8 L510.7,67.8 L511.4,67.8 L512.1,67.8 L512.7,67.8 L513.4,67.8 L514.0,67.8 L514.7,67.8 L515.3,67.8 L516.0,67.8 L516.6,67.8 L517.3,67.8 L518.0,67.8 L518.6,67.8 L519.3,67.8 L519.9,67.8 L520.6,67.8 L521.2,67.8 L521.9,67.8 L522.6,67.8 L523.2,67.8 L523.9,67.8 L524.5,67.8 L525.2,67.8 L525.8,67.8 L526.5,67.8 L527.2,67.8 L527.8,67.8 L528.5,67.8 L529.1,67.8 L529.8,67.8 L530.4,67.8 L531.1,67.8 L531.7,67.8 L532.4,67.8 L533.1,67.8 L533.7,67.8 L534.4,67.8 L535.0,67.8 L535.7,67.8 L536.3,67.8 L537.0,67.8 L537.7,67.8 L538.3,67.8 L539.0,67.8 L539.6,67.8 L540.3,67.8 L540.9,67.8 L541.6,67.8 L542.3,67.8 L542.9,67.8 L543.6,67.8 L544.2,67.8 L544.9,67.8 L545.5,67.8 L546.2,67.8 L546.9,67.8 L547.5,67.8 L548.2,67.8 L548.8,67.8 L549.5,67.8 L550.1,67.8 L550.8,67.8 L551.4,67.8 L552.1,67.8 L552.8,67.8 L553.4,67.8 L554.1,67.8 L554.7,67.8 L555.4,67.8 L556.0,67.8 L556.7,67.8 L557.4,67.8 L558.0,67.8 L558.7,67.8 L559.3,67.8 L560.0,67.8 L560.6,67.8 L561.3,67.8 L562.0,67.8 L562.6,67.8 L563.3,67.8 L563.9,67.8 L564.6,67.8 L565.2,67.8 L565.9,67.8 L566.6,67.8 L567.2,67.8 L567.9,67.8 L568.5,67.8 L569.2,67.8 L569.8,67.8 L570.5,67.8 L571.1,67.8 L571.8,67.8 L572.5,67.8 L573.1,67.8 L573.8,67.8 L574.4,67.8 L575.1,67.8 L575.7,67.8 L576.4,67.8 L577.1,67.8 L577.7,67.8 L578.4,67.8 L579.0,67.8 L579.7,67.8 L580.3,67.8 L581.0,67.8 L581.7,67.8 L582.3,67.8 L583.0,67.8 L583.6,67.8 L584.3,67.8 L584.9,67.8 L585.6,67.8 L586.3,67.8 L586.9,67.8 L587.6,67.8 L588.2,67.8 L588.9,67.8 L589.5,67.8 L590.2,67.8 L590.8,67.8 L591.5,67.8 L592.2,67.8 L592.8,67.8 L593.5,67.8 L594.1,67.8 L594.8,67.8 L595.4,67.8 L596.1,67.8 L596.8,67.8 L597.4,67.8 L598.1,67.8 L598.7,67.8 L599.4,67.8 L600.0,67.8 L600.7,67.8 L601.4,67.8 L602.0,67.8 L602.7,67.8 L603.3,67.8 L604.0,67.8 L604.6,67.8 L605.3,67.8 L606.0,67.8 L606.6,67.8 L607.3,67.8 L607.9,67.8 L608.6,67.8 L609.2,67.8 L609.9,67.8 L610.5,67.8 L611.2,67.8 L611.9,67.8 L612.5,67.8 L613.2,67.8 L613.8,67.8 L614.5,67.8 L615.1,67.8 L615.8,67.8 L616.5,67.8 L617.1,67.8 L617.8,67.8 L618.4,67.8 L619.1,67.8 L619.7,67.8 L620.4,67.8 L621.1,67.8 L621.7,67.8 L622.4,67.8 L623.0,67.8 L623.7,67.8 L624.3,67.8 L625.0,67.8 L625.7,67.8 L626.3,67.8 L627.0,67.8 L627.6,67.8 L628.3,67.8 L628.9,67.8 L629.6,67.8 L630.2,67.8 L630.9,67.8 L631.6,67.8 L632.2,67.8 L632.9,67.8 L633.5,67.8 L634.2,67.8 L634.8,67.8 L635.5,67.8 L636.2,67.8 L636.8,67.8 L637.5,67.8 L638.1,67.8 L638.8,67.8 L639.4,67.8 L640.1,67.8 L640.8,67.8 L641.4,67.8 L642.1,67.8 L642.7,67.8 L643.4,67.8 L644.0,67.8 L644.7,67.8 L645.4,67.8 L646.0,67.8 L646.7,67.8 L647.3,67.8 L648.0,67.8 L648.6,67.8 L649.3,67.8 L649.9,67.8 L650.6,67.8 L651.3,67.8 L651.9,67.8 L652.6,67.8 L653.2,67.8 L653.9,67.8 L654.5,67.8 L655.2,67.8 L655.9,67.8 L656.5,67.8 L657.2,67.8 L657.8,67.8 L658.5,67.8 L659.1,67.8 L659.8,67.8 L660.5,67.8 L661.1,67.8 L661.8,67.8 L662.4,67.8 L663.1,67.8 L663.7,67.8 L664.4,67.8 L665.1,67.8 L665.7,67.8 L666.4,67.8 L667.0,67.8 L667.7,67.8 L668.3,67.8 L669.0,67.8 L669.6,67.8 L670.3,67.8 L671.0,67.8 L671.6,67.8 L672.3,67.8 L672.9,67.8 L673.6,67.8 L674.2,67.8 L674.9,67.8 L675.6,67.8 L676.2,67.8 L676.9,67.8 L677.5,67.8 L678.2,67.8 L678.8,67.8 L679.5,67.8 L680.2,67.8 L680.8,67.8 L681.5,67.8 L682.1,67.8 L682.8,67.8 L683.4,67.8 L684.1,67.8 L684.8,67.8 L685.4,67.8 L686.1,67.8 L686.7,67.8 L687.4,67.8 L688.0,67.8 L688.7,67.8 L689.3,67.8 L690.0,67.8 L690.7,67.8 L691.3,67.8 L692.0,67.8 L692.6,67.8 L693.3,67.8 L693.9,67.8 L694.6,67.8 L695.3,67.8 L695.9,67.8 L696.6,67.8 L697.2,67.8 L697.9,67.8 L698.5,67.8 L699.2,67.8 L699.9,67.8 L700.5,67.8 L701.2,67.8 L701.8,67.8 L702.5,67.8 L703.1,67.8 L703.8,67.8 L704.5,67.8 L705.1,67.8 L705.8,67.8 L706.4,67.8 L707.1,67.8 L707.7,67.8 L708.4,67.8 L709.0,67.8 L709.7,67.8 L710.4,67.8 L711.0,67.8 L711.7,67.8 L712.3,67.8 L713.0,67.8 L713.6,67.8 L714.3,67.8 L715.0,67.8 L715.6,67.8 L716.3,67.8 L716.9,67.8 L717.6,67.8 L718.2,67.8 L718.9,67.8 L719.6,67.8 L720.2,67.8 L720.9,67.8 L721.5,67.8 L722.2,67.8 L722.8,67.8 L723.5,67.8 L724.2,67.8 L724.8,67.8 L725.5,67.8 L726.1,67.8 L726.8,67.8 L727.4,67.8 L728.1,67.8 L728.7,67.8 L729.4,67.8 L730.1,67.8 L730.7,67.8 L731.4,67.8 L732.0,67.8 L732.7,67.8 L733.3,67.8 L734.0,67.8" fill="none" stroke="#c1440e" stroke-width="2" stroke-linejoin="round"/>
<rect x="82" y="45" width="55" height="42" fill="#ffffff" fill-opacity="0.86" stroke="#dcdcdc" stroke-width="1" rx="3"/>
<line x1="88" y1="56" x2="110" y2="56" stroke="#1f4e8c" stroke-width="2.5"/>
<text x="116" y="60" font-size="12" fill="#222222">Cd</text>
<line x1="88" y1="73" x2="110" y2="73" stroke="#c1440e" stroke-width="2.5"/>
<text x="116" y="77" font-size="12" fill="#222222">Cl</text>
<text x="406.0" y="406" text-anchor="middle" font-size="12" fill="#222222">itération du solveur</text>
<text x="18" y="204.0" text-anchor="middle" font-size="12" fill="#222222" transform="rotate(-90 18 204.0)">coefficient</text>
</svg>